<?xml version="1.0" standalone="no"?>
<!DOCTYPE svg PUBLIC "-//W3C//DTD SVG 20010904//EN"
 "http://www.w3.org/TR/2001/REC-SVG-20010904/DTD/svg10.dtd">
<svg version="1.0" xmlns="http://www.w3.org/2000/svg"
 width="162.000000pt" height="142.000000pt" viewBox="0 0 162.000000 142.000000"
 preserveAspectRatio="xMidYMid meet">

<g transform="translate(0.000000,142.000000) scale(0.100000,-0.100000)"
fill="#000000" stroke="none">
<path d="M292 1259 l-252 -161 0 -94 c0 -52 3 -94 8 -94 4 0 82 23 172 50 91
28 209 64 263 81 l97 30 0 174 c0 162 -1 175 -18 175 -10 0 -131 -72 -270
-161z"/>
<path d="M300 890 l-255 -78 -3 -96 c-1 -53 -1 -96 1 -96 1 0 57 11 122 25
217 47 403 85 409 85 3 0 6 54 6 120 0 90 -3 120 -12 119 -7 0 -128 -36 -268
-79z"/>
<path d="M493 621 c-39 -10 -157 -35 -262 -57 l-191 -39 0 -98 0 -98 42 5 c43
6 470 46 488 46 6 0 10 52 10 130 0 72 -3 130 -7 129 -5 -1 -40 -9 -80 -18z"/>
<path d="M340 264 c-129 -12 -250 -23 -267 -23 l-33 -1 0 -100 0 -100 270 0
270 0 0 125 c0 69 -1 124 -2 124 -2 -1 -109 -12 -238 -25z"/>
</g>
</svg>
